<svg width="51" height="50" viewBox="0 0 51 50" fill="none" xmlns="http://www.w3.org/2000/svg">
<path d="M0.5 20C0.5 8.9543 9.45431 0 20.5 0H30.5C41.5457 0 50.5 8.95431 50.5 20V30C50.5 41.0457 41.5457 50 30.5 50H20.5C9.4543 50 0.5 41.0457 0.5 30V20Z" fill="#312F2F"/>
<path d="M12.15 24.75H32.8C36.4727 24.75 39.45 27.7273 39.45 31.4C39.45 35.0727 36.4727 38.05 32.8 38.05H12.15C15.5327 38.05 18.275 35.3078 18.275 31.925V30.875C18.275 27.4922 15.5327 24.75 12.15 24.75Z" fill="#968B6D"/>
<path d="M31.2966 26.0769L31.6408 19.9785H26.3488C26.3572 29.3613 26.3699 34.2627 26.3866 34.6827C26.4119 35.3127 26.4244 35.6697 26.4244 35.7537C26.4244 36.0897 26.1808 36.3669 25.6936 36.5853C25.2064 36.8037 24.8914 36.9129 24.7486 36.9129C24.6058 36.9129 24.5093 36.8499 24.4588 36.7239C24.4085 36.5979 24.4 36.3753 24.4336 36.0561C24.5232 35.1825 24.5905 29.8233 24.6352 19.9785H19.6708C18.9652 19.9785 18.3941 20.0709 17.9572 20.2557L17.05 19.1469C17.6716 19.2309 18.3688 19.2729 19.1416 19.2729H24.6352V17.4585C24.6352 15.9801 24.6016 14.5605 24.5344 13.1997L27.13 14.2833C27.3316 14.3505 27.4324 14.4303 27.4324 14.5227C27.4324 14.6151 27.3316 14.7201 27.13 14.8377L26.3488 15.3417V19.2729H31.3888L32.3464 18.0885L34.1357 19.4745C34.2869 19.5753 34.3624 19.6677 34.3624 19.7517C34.3624 19.8357 34.2616 19.9365 34.06 20.0541L33.3041 20.4573L32.9513 25.3713L31.2966 26.0769H31.2966ZM32.8644 15.1653C34.9813 15.7197 36.4008 16.2237 37.1232 16.6773C37.8457 17.1309 38.2069 17.7189 38.2069 18.4413C38.2069 18.7437 38.1271 19.0125 37.9674 19.2477C37.8078 19.4829 37.581 19.6005 37.2871 19.6005C36.993 19.6005 36.678 19.3569 36.3421 18.8697C35.7372 17.9289 34.5025 16.7949 32.6377 15.4677L32.8644 15.1653Z" fill="#FFFDFD"/>
</svg>
